# xmcd
#
# Track frame offsets: 
#        182
#        12215
#        23810
#        36970
#        49872
#        59272
#        69705
#        83027
#        96532
#        109487
#        119590
#        132517
#        145762
#        157975
#        171110
#        181680
#        193205
#        205667
#        217085
#        228537
#
# Disc length: 3158 seconds
#
# Revision: 0
# Processed by: cddbd v1.5.1PL0 Copyright (c) Steve Scherf et al.
# Submitted via: ExactAudioCopy v0.95a4
#
DISCID=280c5414
DTITLE=Various Artist - Let The Good Times Roll
DYEAR=1900
DGENRE=Country
TTITLE0=Link Davis - Joe Turner
TTITLE1=Link Davis - Have You Heard The News
TTITLE2=Link Davis and the Blue Bonnet Playboys - Steel Guitar Jump
TTITLE3=Link Davis - You Played Around
TTITLE4=Floyd Tillman - Baby I Just Want You
TTITLE5=Floyd Tillman - Save A Little For Me
TTITLE6=102 Ranch Boys (voc. Smitty-Harmonica Kid) - O. P. S. Blues
TTITLE7=Harmonica Kid - Coo-Coo-Coo
TTITLE8=Harmonica Kid - Blon
TTITLE9=Link Davis - Grasshopper
TTITLE10=String Band (voc Harmonica Kid) - I'll Keep On Crying
TTITLE11=Benny Leaders and The Western Rangers - All The World Is Lonely
TTITLE11=Now
TTITLE12=Link Davis and The Blue Bonnet Playboys - Rice And Gravy Boogie
TTITLE13=Link Davis and The Blue Bonnet Playboys - Rice And Gravy Blues 
TTITLE14=Link Davis - Bon-Ta-Ru-La (Let The Good Times Roll)
TTITLE15=Link Davis - Permit Blues
TTITLE16=Link Davis - Airliner
TTITLE17=Link Davis - Rice And Gravy
TTITLE18=Link Davis - Big Mamou
TTITLE19=Link Davis (Man With The Buzzin' Sax) - Beatle Bug
EXTD=
EXTT0=
EXTT1=
EXTT2=
EXTT3=
EXTT4=
EXTT5=
EXTT6=
EXTT7=
EXTT8=
EXTT9=
EXTT10=
EXTT11=
EXTT12=
EXTT13=
EXTT14=
EXTT15=
EXTT16=
EXTT17=
EXTT18=
EXTT19=
PLAYORDER=
